<svg id="est81NnMhrD1" xmlns="http://www.w3.org/2000/svg" xmlns:xlink="http://www.w3.org/1999/xlink" viewBox="0 0 552.8 205.3" shape-rendering="geometricPrecision" text-rendering="geometricPrecision"><defs><ellipse id="est81NnMhrD2" rx="63" ry="51.8"/><path id="est81NnMhrD3" d="M330.9,-14.2h179.8v165.1h-179.8Z"/><ellipse id="est81NnMhrD4" rx="63" ry="51.8"/><path id="est81NnMhrD5" d="M357.8,17h125.9v103.7h-125.9Z"/><path id="est81NnMhrD6" d="M357.8,17h125.9v103.7h-125.9Z"/></defs><path d="M285.4,68l26.3-1.7c.6,4.3,1.7,7.5,3.5,9.8c2.9,3.6,6.9,5.4,12.2,5.4c3.9,0,7-.9,9.1-2.8c2-1.5,3.2-3.9,3.2-6.4c0-2.4-1.1-4.7-3-6.2-2-1.8-6.7-3.6-14.1-5.2-12.1-2.7-20.8-6.3-25.9-10.9-5.1-4.3-8-10.6-7.8-17.3c0-4.6,1.4-9.2,4-13c3-4.3,7.1-7.7,12-9.6c5.3-2.3,12.7-3.5,22-3.5C338.3,6.6,347,8.7,353,13c6,4.2,9.6,11,10.7,20.3l-26,1.5c-.7-4-2.1-6.9-4.4-8.8s-5.3-2.8-9.2-2.8c-3.2,0-5.6.7-7.2,2-1.5,1.2-2.5,3-2.4,5c0,1.5.8,2.9,2,3.8c1.3,1.2,4.4,2.3,9.3,3.3c12.1,2.6,20.7,5.2,26,7.9s9.1,6,11.4,9.9c2.4,4,3.6,8.6,3.5,13.3c0,5.6-1.6,11.2-4.8,15.9-3.3,4.9-7.9,8.7-13.3,11-5.7,2.5-12.9,3.8-21.5,3.8-15.2,0-25.7-2.9-31.6-8.8s-9.4-13.3-10.1-22.3ZM6.3,97.6v-89.4h46.1c8.5,0,15.1.7,19.6,2.2c4.4,1.4,8.3,4.3,10.9,8.2c2.9,4.3,4.3,9.3,4.2,14.5.3,8.8-4.2,17.2-11.9,21.6-3,1.7-6.3,2.9-9.7,3.5c2.5.7,5,1.9,7.2,3.3c1.7,1.4,3.1,3,4.4,4.7c1.5,1.7,2.8,3.6,3.9,5.6L94.4,97.7h-31.4L48.2,70.2c-1.9-3.5-3.5-5.8-5-6.9-2-1.4-4.4-2.1-6.8-2.1h-2.4v36.3h-27.7ZM34,44.4h11.7c2.5-.2,4.9-.6,7.3-1.2c1.8-.3,3.4-1.3,4.5-2.8c2.7-3.6,2.3-8.7-1-11.8-1.8-1.5-5.3-2.3-10.3-2.3h-12.2v18.1ZM0,174.2l26.3-1.7c.6,4.3,1.7,7.5,3.5,9.8c2.8,3.6,6.9,5.5,12.2,5.5c3.9,0,7-.9,9.1-2.8c2-1.6,3.2-3.9,3.2-6.4c0-2.4-1.1-4.7-3-6.2-2-1.8-6.7-3.6-14.2-5.2-12.1-2.7-20.8-6.3-25.9-10.9-5.1-4.3-8-10.6-7.8-17.3c0-4.6,1.4-9.2,4-13c3-4.3,7.1-7.7,12-9.6c5.3-2.3,12.7-3.5,22-3.5c11.4,0,20.1,2.1,26.1,6.4s9.5,11,10.6,20.3l-26,1.5c-.7-4-2.1-6.9-4.4-8.8-2.2-1.9-5.3-2.8-9.2-2.7-3.2,0-5.6.7-7.2,2.1-1.6,1.2-2.5,3-2.4,5c0,1.5.8,2.9,2,3.8c1.3,1.2,4.4,2.3,9.3,3.3c12.1,2.6,20.7,5.2,26,7.9s9.1,6,11.4,9.9c2.4,4,3.6,8.6,3.6,13.2c0,5.6-1.7,11.1-4.8,15.8-3.3,4.9-7.9,8.7-13.3,11-5.7,2.5-12.9,3.8-21.5,3.8-15.2,0-25.7-2.9-31.6-8.8-5.9-6-9.2-13.4-10-22.4Z" fill="#fff"/><path d="M133,167.2l24.2,7.3c-1.3,6.1-4,11.9-7.7,17-3.4,4.5-7.9,8-13,10.3-5.2,2.3-11.8,3.5-19.8,3.5-9.7,0-17.7-1.4-23.8-4.2-6.2-2.8-11.5-7.8-16-14.9s-6.7-16.2-6.7-27.3c0-14.8,3.9-26.2,11.8-34.1s19-11.9,33.4-11.9c11.3,0,20.1,2.3,26.6,6.8c6.4,4.6,11.2,11.6,14.4,21L132,146.1c-.6-2.1-1.5-4.2-2.7-6-1.5-2.1-3.4-3.7-5.7-4.9s-4.9-1.7-7.5-1.7c-6.3,0-11.1,2.5-14.4,7.6-2.5,3.7-3.8,9.6-3.8,17.6c0,9.9,1.5,16.7,4.5,20.4s7.2,5.5,12.7,5.5c5.3,0,9.3-1.5,12-4.4c2.7-3.1,4.7-7.4,5.9-13Zm56.5-52.8h27.6v31.3h30.2v-31.3h27.8v89.4h-27.8v-36.2h-30.2v36.2h-27.6v-89.4Z" fill="#fbfbfb"/><path d="M271.3,159.1c0-14.6,4.1-26,12.2-34.1s19.5-12.2,34-12.2c14.9,0,26.3,4,34.4,12s12.1,19.2,12.1,33.6c0,10.5-1.8,19-5.3,25.7-3.4,6.6-8.7,12-15.2,15.6-6.7,3.7-15,5.6-24.9,5.6-10.1,0-18.4-1.6-25-4.8-6.8-3.4-12.4-8.7-16.1-15.2-4.1-7-6.2-15.7-6.2-26.2Zm27.6.1c0,9,1.7,15.5,5,19.5c3.3,3.9,7.9,5.9,13.7,5.9c5.9,0,10.5-1.9,13.8-5.8s4.9-10.8,4.9-20.8c0-8.4-1.7-14.6-5.1-18.4-3.4-3.9-8-5.8-13.8-5.8-5.1-.2-10,2-13.4,5.9s-5.1,10.4-5.1,19.5Zm93.4-.1c0-14.6,4.1-26,12.2-34.1s19.5-12.2,34-12.2c14.9,0,26.4,4,34.4,12s12.1,19.2,12.1,33.6c0,10.5-1.8,19-5.3,25.7-3.4,6.6-8.7,12-15.2,15.6-6.7,3.7-15,5.6-24.9,5.6-10.1,0-18.4-1.6-25-4.8-6.8-3.4-12.4-8.7-16.1-15.2-4.1-7-6.2-15.7-6.2-26.2Zm27.6.1c0,9,1.7,15.5,5,19.5c3.3,3.9,7.9,5.9,13.7,5.9c5.9,0,10.5-1.9,13.8-5.8s4.9-10.8,4.9-20.8c0-8.4-1.7-14.6-5.1-18.4-3.4-3.9-8-5.8-13.8-5.8-5.1-.2-10.1,2-13.4,5.9-3.4,3.9-5.1,10.4-5.1,19.5Z" fill="#fff"/><path d="M482.1,114.4h27.6v67.4h43.1v22h-70.8v-89.4Z" fill="#fff"/><ellipse rx="63" ry="51.8" transform="matrix(.798625-.601829 0.601829 0.798625 420.503995 67.871546)" fill="#fff"/><g clip-path="url(#est81NnMhrD43)"><g><path d="M330.9,-14.2h179.8v165.1h-179.8Z" transform="matrix(.798625-.601829 0.601829 0.798625 43.6058 267.026)" fill="#fff"/><g><g clip-path="url(#est81NnMhrD41)"><g><ellipse rx="63" ry="51.8" transform="matrix(.798625-.601829 0.601829 0.798625 420.503995 67.871546)" fill="#fff"/><g clip-path="url(#est81NnMhrD37)"><g><path d="M357.8,17h125.9v103.7h-125.9Z" transform="matrix(.798636-.601815 0.601815 0.798636 43.3279 267.097)" fill="#fff"/><g clip-path="url(#est81NnMhrD26)"><g><ellipse rx="63" ry="51.8" transform="matrix(.798625-.601829 0.601829 0.798625 420.503995 67.871546)" fill="#fff" stroke="#000" stroke-width="4" stroke-miterlimit="10"/></g><path d="M357.8,17h125.9v103.7h-125.9Z" transform="matrix(.798636-.601815 0.601815 0.798636 43.3279 267.097)" fill="none" stroke="#000" stroke-width="4" stroke-miterlimit="10"/><clipPath id="est81NnMhrD26"><use width="125.899994" height="103.699997" xlink:href="#est81NnMhrD5" transform="matrix(.798636-.601815 0.601815 0.798636 43.3279 267.097)"/></clipPath></g><ellipse rx="63" ry="51.8" transform="matrix(.798625-.601829 0.601829 0.798625 420.503995 67.871546)" fill="none" stroke="#000" stroke-width="4" stroke-miterlimit="10"/><path d="M357.8,17h125.9v103.7h-125.9Z" transform="matrix(.798636-.601815 0.601815 0.798636 43.3279 267.097)" fill="#fff"/><g clip-path="url(#est81NnMhrD34)"><g><ellipse rx="63" ry="51.8" transform="matrix(.798625-.601829 0.601829 0.798625 420.503995 67.871546)" fill="#fff" stroke="#000" stroke-width="4" stroke-miterlimit="10"/></g><path d="M357.8,17h125.9v103.7h-125.9Z" transform="matrix(.798636-.601815 0.601815 0.798636 43.3279 267.097)" fill="none" stroke="#000" stroke-width="4" stroke-miterlimit="10"/><clipPath id="est81NnMhrD34"><use width="125.899994" height="103.699997" xlink:href="#est81NnMhrD6" transform="matrix(.798636-.601815 0.601815 0.798636 43.3279 267.097)"/></clipPath></g><path d="M330.9,-14.2h179.8v165.1h-179.8Z" transform="matrix(.798625-.601829 0.601829 0.798625 43.6058 267.026)" fill="none" stroke="#000" stroke-width="4" stroke-miterlimit="10"/></g><clipPath id="est81NnMhrD37"><use width="126" height="103.599998" xlink:href="#est81NnMhrD4" transform="matrix(.798625-.601829 0.601829 0.798625 420.503995 67.871546)"/></clipPath></g><ellipse rx="63" ry="51.8" transform="matrix(.798625-.601829 0.601829 0.798625 420.503995 67.871546)" fill="none" stroke="#000" stroke-width="4" stroke-miterlimit="10"/><path d="M392.4,61.3l10-7l12.3,17.5c2.1,2.8,3.7,5.8,4.9,9.1.7,2.5.5,5.2-.5,7.6-1.3,3-3.4,5.5-6.2,7.3-3.3,2.3-6.1,3.6-8.5,4-2.3.4-4.7,0-6.9-1-2.4-1.2-4.5-2.9-6.1-5.1l8.6-8c.7,1.1,1.6,2.1,2.6,2.9.7.5,1.5.8,2.4.8.7,0,1.4-.3,1.9-.7c1-.6,1.7-1.8,1.6-3-.3-1.7-1-3.4-2.1-4.7l-14-19.7Zm30,11.1l9.1-7.2c1,1.2,2.3,2.1,3.7,2.6c2,.6,4.1.2,5.8-1.1c1.2-.8,2.2-1.9,2.6-3.3.6-1.8-.4-3.8-2.2-4.4-.3-.1-.6-.2-.9-.2-1.2-.1-3.3.4-6.4,1.7-5.1,2.1-9.1,2.9-12.1,2.6-2.9-.3-5.6-1.8-7.2-4.3-1.2-1.7-1.8-3.7-1.9-5.7c0-2.3.6-4.6,1.9-6.5c1.9-2.7,4.2-5,7-6.8c4.2-2.9,7.9-4.3,11.1-4.3s6.2,1.5,9,4.6l-9,7.1c-1.8-2.3-5.2-2.8-7.5-1l-.3.3c-1,.6-1.7,1.5-2.1,2.6-.3.8-.1,1.7.4,2.4.4.5,1,.9,1.7.9.8.1,2.2-.3,4.2-1.2c5-2.1,8.8-3.3,11.4-3.7c2.2-.4,4.5-.2,6.6.7c1.9.8,3.5,2.2,4.6,3.9c1.4,2,2.2,4.4,2.3,6.9.1,2.6-.6,5.1-2,7.3-1.8,2.7-4.1,5-6.8,6.8-5.5,3.8-10,5.4-13.6,4.8-3.9-.6-7.1-2.6-9.4-5.5Z" transform="translate(.000001 0)"/></g><clipPath id="est81NnMhrD41"><use width="179.800018" height="165.100006" xlink:href="#est81NnMhrD3" transform="matrix(.798625-.601829 0.601829 0.798625 43.6058 267.026)"/></clipPath></g></g></g><clipPath id="est81NnMhrD43"><use width="126" height="103.599998" xlink:href="#est81NnMhrD2" transform="matrix(.798625-.601829 0.601829 0.798625 420.503995 67.871546)"/></clipPath></g></svg>